<svg xmlns="http://www.w3.org/2000/svg" viewBox="0 0 96 96" width="96" height="96">
<!-- Sankai Life — genere par art/generer-assets.py, ne pas editer a la main -->
  <path d="M68.4,45.4L67.5,52.7L63.4,58.2L57.0,63.3L51.3,65.1L43.8,64.8L37.8,62.7L33.5,59.6L29.7,53.1L27.2,46.5L28.8,38.6L32.7,32.3L38.3,28.2L45.4,25.3L50.9,26.8L57.6,27.7L63.2,33.1L67.4,40.0Z" fill="#E8A05A" stroke="#3B3025" stroke-width="2.4" stroke-linecap="round" stroke-linejoin="round"/>
  <clipPath id="cmeteocanicule0"><path d="M68.4,45.4L67.5,52.7L63.4,58.2L57.0,63.3L51.3,65.1L43.8,64.8L37.8,62.7L33.5,59.6L29.7,53.1L27.2,46.5L28.8,38.6L32.7,32.3L38.3,28.2L45.4,25.3L50.9,26.8L57.6,27.7L63.2,33.1L67.4,40.0Z"/></clipPath>
  <g clip-path="url(#cmeteocanicule0)"><path d="M78.7,-25.2L118.4,15.1M73.7,-19.2L112.6,21.4M67.2,-13.1L107.6,26.4M61.6,-7.8L102.0,31.5M56.4,-2.5L95.7,38.1M50.6,4.0L91.3,43.0M45.0,8.8L84.9,48.4M39.6,14.8L78.6,55.3M33.1,20.8L73.1,61.0M28.1,26.1L67.9,65.9M22.1,32.1L61.8,72.0M16.8,37.3L56.4,77.6M11.5,42.4L50.5,82.8M5.8,48.3L45.5,88.3M-0.1,54.9L39.3,94.7M-5.6,60.3L33.9,100.2M-11.4,64.9L27.8,105.0M-17.6,71.0L22.6,111.4" stroke="#C4614B" stroke-width="1.0" fill="none" stroke-opacity="0.55"/></g>
  <path d="M72.6,45.7L81.3,45.3" fill="none" stroke="#C4614B" stroke-width="2.4" stroke-linecap="round" stroke-linejoin="round"/>
  <path d="M67.7,60.5L74.9,66.5" fill="none" stroke="#C4614B" stroke-width="2.4" stroke-linecap="round" stroke-linejoin="round"/>
  <path d="M56.2,69.0L59.0,78.6" fill="none" stroke="#C4614B" stroke-width="2.4" stroke-linecap="round" stroke-linejoin="round"/>
  <path d="M40.9,70.3L37.8,78.7" fill="none" stroke="#C4614B" stroke-width="2.4" stroke-linecap="round" stroke-linejoin="round"/>
  <path d="M28.0,60.1L21.0,66.5" fill="none" stroke="#C4614B" stroke-width="2.4" stroke-linecap="round" stroke-linejoin="round"/>
  <path d="M23.2,46.2L14.8,45.4" fill="none" stroke="#C4614B" stroke-width="2.4" stroke-linecap="round" stroke-linejoin="round"/>
  <path d="M27.3,31.8L19.8,26.5" fill="none" stroke="#C4614B" stroke-width="2.4" stroke-linecap="round" stroke-linejoin="round"/>
  <path d="M40.7,21.4L38.1,14.1" fill="none" stroke="#C4614B" stroke-width="2.4" stroke-linecap="round" stroke-linejoin="round"/>
  <path d="M56.4,21.5L58.1,13.1" fill="none" stroke="#C4614B" stroke-width="2.4" stroke-linecap="round" stroke-linejoin="round"/>
  <path d="M68.4,31.6L75.7,25.4" fill="none" stroke="#C4614B" stroke-width="2.4" stroke-linecap="round" stroke-linejoin="round"/>
  <path d="M26.4,75.3L28.3,70.2L32.1,67.0L36.6,62.6L42.3,61.4L48.5,59.7L53.4,61.3L59.2,63.0L64.9,66.5L68.0,70.7L70.0,74.9" fill="none" stroke="#C4614B" stroke-width="2.6" stroke-linecap="round" stroke-linejoin="round"/>
  <path d="M25.0,83.4L28.7,78.8L31.3,74.9L35.8,70.5L43.1,67.9L47.8,67.9L53.9,68.3L59.0,70.8L63.7,73.7L68.7,78.3L70.8,83.8" fill="none" stroke="#C4614B" stroke-width="2.2" stroke-linecap="round" stroke-linejoin="round"/>
</svg>
