<svg xmlns="http://www.w3.org/2000/svg" viewBox="0 0 96 96" width="96" height="96">
<!-- Sankai Life — genere par art/generer-assets.py, ne pas editer a la main -->
  <path d="M23.8,51.2L27.0,38.6L42.8,30.2L58.9,31.2L68.2,39.2L74.3,51.4Z" fill="#F2EADB" stroke="#3B3025" stroke-width="2.4" stroke-linecap="round" stroke-linejoin="round"/>
  <clipPath id="cmeteopluie0"><path d="M23.8,51.2L27.0,38.6L42.8,30.2L58.9,31.2L68.2,39.2L74.3,51.4Z"/></clipPath>
  <g clip-path="url(#cmeteopluie0)"><path d="M47.8,-35.9L99.5,-16.5M44.4,-29.3L97.9,-9.3M41.0,-21.5L94.6,-2.5M38.5,-13.1L92.2,4.8M36.9,-5.6L88.7,12.6M33.3,0.7L86.8,20.0M31.0,9.2L84.3,27.8M27.8,16.3L81.4,35.3M25.6,24.3L78.0,43.7M22.8,31.0L75.6,51.1M19.1,39.4L72.1,57.7M17.2,46.2L69.3,66.2M14.9,53.9L66.6,73.7M12.1,62.0L64.7,81.3M9.3,68.8L61.2,88.6M5.5,76.6L59.1,95.3M3.4,83.6L56.0,102.7M0.8,91.8L53.8,110.4" stroke="#9AA0A6" stroke-width="0.9" fill="none" stroke-opacity="0.55"/></g>
  <path d="M30.6,60.1L27.0,75.7" fill="none" stroke="#6FA8C7" stroke-width="2.6" stroke-linecap="round" stroke-linejoin="round"/>
  <path d="M42.2,59.7L38.5,75.4" fill="none" stroke="#6FA8C7" stroke-width="2.6" stroke-linecap="round" stroke-linejoin="round"/>
  <path d="M54.7,60.2L51.4,76.1" fill="none" stroke="#6FA8C7" stroke-width="2.6" stroke-linecap="round" stroke-linejoin="round"/>
  <path d="M66.5,59.6L63.2,75.4" fill="none" stroke="#6FA8C7" stroke-width="2.6" stroke-linecap="round" stroke-linejoin="round"/>
</svg>
