<svg xmlns="http://www.w3.org/2000/svg" viewBox="0 0 96 96" width="96" height="96">
<!-- Sankai Life — genere par art/generer-assets.py, ne pas editer a la main -->
  <path d="M12.4,46.2L29.5,38.1L50.6,35.9L71.0,39.5L83.9,46.6L83.6,59.9L66.3,68.7L44.9,69.4L25.0,65.6L12.5,58.3Z" fill="#8A6A45" stroke="#3B3025" stroke-width="2.4" stroke-linecap="round" stroke-linejoin="round"/>
  <clipPath id="csolterre0"><path d="M12.4,46.2L29.5,38.1L50.6,35.9L71.0,39.5L83.9,46.6L83.6,59.9L66.3,68.7L44.9,69.4L25.0,65.6L12.5,58.3Z"/></clipPath>
  <g clip-path="url(#csolterre0)"><path d="M95.3,-33.7L144.9,28.0M90.3,-30.1L138.0,33.1M83.7,-25.8L132.7,36.8M79.1,-21.2L127.8,41.0M73.5,-17.5L121.8,46.2M67.2,-12.5L116.0,49.2M62.7,-8.8L111.4,54.7M56.6,-3.6L106.1,58.2M51.6,0.4L99.6,62.9M45.7,4.4L95.2,66.7M39.9,8.1L89.1,71.1M34.0,12.4L84.0,75.7M29.2,17.9L77.4,79.5M23.2,21.4L72.0,83.9M18.0,26.6L66.7,89.3M12.7,30.1L61.4,93.0M7.0,34.2L55.4,96.7M2.0,38.9L50.9,102.1M-4.1,43.4L45.6,105.8M-9.6,47.1L40.0,109.9M-14.6,52.3L33.7,114.0M-21.0,56.7L28.1,118.5M-25.6,60.5L23.1,123.8M-32.1,64.8L17.2,127.6M-37.6,69.2L12.5,132.1M-42.6,73.7L6.3,136.5" stroke="#6B5B49" stroke-width="1.0" fill="none" stroke-opacity="0.55"/></g>
  <path d="M20.7,47.0L40.6,45.4L62.1,48.0L78.1,47.3" fill="none" stroke="#573F28" stroke-width="1.6" stroke-linecap="round" stroke-linejoin="round"/>
  <path d="M19.1,55.3L39.3,54.5L62.6,56.7L77.6,54.7" fill="none" stroke="#573F28" stroke-width="1.6" stroke-linecap="round" stroke-linejoin="round"/>
  <path d="M19.8,62.2L40.4,60.9L61.8,64.4L77.8,63.0" fill="none" stroke="#573F28" stroke-width="1.6" stroke-linecap="round" stroke-linejoin="round"/>
</svg>
